<?xml version="1.0" standalone="no"?>
<!DOCTYPE svg PUBLIC "-//W3C//DTD SVG 20010904//EN"
 "http://www.w3.org/TR/2001/REC-SVG-20010904/DTD/svg10.dtd">
<svg version="1.0" xmlns="http://www.w3.org/2000/svg"
 width="224.000000pt" height="224.000000pt" viewBox="0 0 224.000000 224.000000"
 preserveAspectRatio="xMidYMid meet">
<metadata>
Created by potrace 1.14, written by Peter Selinger 2001-2017
</metadata>
<g transform="translate(0.000000,224.000000) scale(0.100000,-0.100000)"
fill="#000000" stroke="none">
<path d="M975 2130 c-22 -4 -53 -10 -70 -13 -16 -2 -64 -16 -105 -30 -270 -91
-494 -301 -605 -566 -47 -112 -66 -207 -70 -346 -7 -218 34 -377 146 -562 21
-34 48 -73 60 -86 11 -14 22 -29 23 -33 2 -13 127 -127 186 -170 30 -22 76
-51 102 -64 26 -13 44 -28 41 -34 -3 -5 -1 -6 6 -2 6 4 39 -4 74 -18 34 -13
91 -31 127 -39 140 -33 260 -36 405 -12 67 10 179 47 251 81 29 14 56 25 60
24 4 -1 10 2 13 7 3 4 33 26 66 48 83 56 213 187 268 270 215 329 222 745 18
1079 -53 85 -63 98 -151 186 -126 126 -282 215 -457 261 -85 22 -315 34 -388
19z"/>
</g>
</svg>
